<?xml version="1.0" encoding="utf-8"?>
<!-- Generator: Adobe Illustrator 22.0.0, SVG Export Plug-In . SVG Version: 6.00 Build 0)  -->
<svg version="1.1" xmlns="http://www.w3.org/2000/svg" xmlns:xlink="http://www.w3.org/1999/xlink" x="0px" y="0px"
	 viewBox="0 0 210.5 67.7" style="enable-background:new 0 0 210.5 67.7;" xml:space="preserve">
<style type="text/css">
	.st0{display:none;}
	.st1{display:inline;opacity:0.3;stroke:#000000;stroke-width:19;stroke-miterlimit:10;}
	.st2{font-family:'SegoeUI-Semilight';}
	.st3{font-size:130.8538px;}
	.st4{fill:none;stroke:#E24C9B;stroke-miterlimit:10;}
	.st5{fill:none;stroke:#00BFF3;stroke-miterlimit:10;}
	.st6{fill:url(#SVGID_1_);}
	.st7{fill:#00BFF3;}
	.st8{fill:#E24C9B;}
</style>
<g id="Reference_Text" class="st0">
	<text transform="matrix(0.9613 0 -0.2756 0.9613 13.7415 130.0496)" class="st1 st2 st3">W D W</text>
</g>
<g id="Lines">
	<polyline class="st4" points="55.3,65.6 55.3,60.6 57.1,60.6 	"/>
	<line class="st4" x1="83.3" y1="60.5" x2="83.3" y2="65.6"/>
	<polyline class="st4" points="85.7,60.5 88.6,60.5 88.6,65.6 	"/>
	<polyline class="st4" points="105.3,55.4 105.3,61.6 103,61.6 103,65.6 	"/>
	<polyline class="st4" points="66.5,60.5 66.5,62.8 70.7,62.8 70.7,65.6 	"/>
	<polyline class="st4" points="105.1,59.1 113.7,59.1 113.7,62.2 118.1,62.2 118.1,65.6 	"/>
	<polyline class="st5" points="33.8,60.5 33.8,63.1 26.9,63.1 26.9,65.2 	"/>
	<polyline class="st5" points="13,60.1 13,62.3 19.3,62.3 19.3,65.2 	"/>
	<polyline class="st5" points="43.4,59.1 46.8,59.1 46.8,65.2 	"/>
	<polyline class="st5" points="137.7,60.1 137.7,62.8 134,62.8 134,65.6 	"/>
	<polyline class="st5" points="147.6,58 151.3,58 151.3,62.3 147.2,62.3 147.2,64.9 	"/>
	<polyline class="st5" points="167.4,60.5 167.4,63.1 161.7,63.1 161.7,65.6 	"/>
	<radialGradient id="SVGID_1_" cx="88.4118" cy="65.5999" r="76.4136" gradientUnits="userSpaceOnUse">
		<stop  offset="0.4314" style="stop-color:#E24C9B"/>
		<stop  offset="0.5484" style="stop-color:#00BFF3"/>
	</radialGradient>
	<rect x="2.5" y="64.9" class="st6" width="174" height="1.5"/>
	<polyline class="st5" points="176.5,66.4 176.5,63.1 178.1,63.1 178.1,55.2 175.6,55.2 	"/>
	<polyline class="st5" points="2.6,59.3 2.6,61.8 1.3,61.8 1.3,63.7 2.6,63.7 2.6,66.4 	"/>
</g>
<g id="W_1_">
	<path class="st7" d="M200.2,5.4h0.7h3.9V2.3h4.7V1h-6.1V4h-1.8V1h-8.2v14.6h-1V6.1h-1.4v4.2h-2.3v1.4h2.3v1.5h-3.9v1.4h3.9v0.9
		h-5.4v3.8h-1.6v1.4h1.6v2.1h-1.2h-3v3.1H180v1.4h1.4v0.9h-2.5v-3.6h-3.4v-2.2h2.7V21h-1v-1.5h1.7v-12h-0.2V6.8h-3.2V2.9h3.2V1.5
		h-3.2H174h-7.3v3.2h-1.9V6h1.9v2.2h-3.9v1.4h3.9v1.5h-5.3v3.1h-1.9v1.4h1.9v1.1h-4v3.5h-1.6v1.4h1.6v6.5h-1.9V23h-1.4v3.6h-1.8V28
		h1.8v1.9h-3.2v-6.7h-2.6v-2.5h3.2v-6.4h-2.8v-2.6h2.8V0.6h-16.8V2h5.1v1.7h-5v1.4h8.6v3.9h6.8v1.4h-6.2h-0.7h-1.7V6.2h-6.8v1.4h5.4
		v4.1h3v1.4h-4.3V9.2h-4.3v11.3h1.4v-10h1.6v3.2v0.7v4.8H136v3.9h-1.2v1.4h3.2v2.1h-3.2V28h5v2.2h-1.6h-0.7h-2.8v5.4h1.4v-4h0.7v4.6
		v0.7v7.6h-0.5v-3.9h-1.4v5.3h8.4v1.4h-4v1.5h-2.9v-2.5h-1.4v3.9h4.3v1.2h-4.1v1.4h4.7h0.7h2.6v1.7h-8.3v2.7h1.4v-1.3h0.7v2.4h3.6v1
		h-5.6v1.4h13.2v-4.5h2.6v-2.5h1.4v-1.4h-2.8v2.5h-1.2v-3.6h5.4v-1.4h-9.1v-9.5h3.7v-4.4h1.2v4.4h3.7v1.2h-7.6v7h5.3v-3h2.1v3h2.4
		v-1.4h-1v-1.6h2.9V44h-7.7v3h-2.5v-4.2h7.6v-2.6h2v2.3h2.3v-1.4H158v-1v-0.7V38h3.4v-1.4h-4.1h-0.7H153v-0.9h9.1h0.4v2.8h4.2v3.7
		h1.4V31.6h0.8v11.7h-2.5v-2.2h-2.5v-1.7h-1.4v7.5h2.9v2.3h-2.2v0.1h-0.7V61h14.1v-8.9h4.9v-0.7h0v-4.4h2.4v-1.4h-2.4v-2h5.1v-6.7h3
		v-1.4h-3v-2.2h5.6v-4.8h2.2v-1.4h-2.2v-2.9h4.1v-1.4h-4.1V21l6.9,0v-4.9h2.2v-1.4h-2.2V12h5.1v-1.4h-1.5V8.2h4.1V4.5h1.6V3.1h-3
		v3.7h-6.4V5.4H200.2z M141.1,3.7V2h5.8v3.6h-2.2V3.7H141.1z M144.7,7.6V7h3.6V2h1.8v5.5H144.7z M200.2,2.3V4h-2.4v8.8h-1V5.4h-2.1
		v-3H200.2z M190.9,16.9v2.7l-1,0v-2.2h-3v-0.5H190.9z M185.2,28.1h0.4v2.2h2.7v1.6h-3.1V28.1z M188.2,28.9h-1.3v-2.2h-1.2v-2.5h0.5
		h2V28.9z M182.8,29.6v-5.4h1.6v2.5h-0.6v5.1h-4.9v-2.3H182.8z M172.2,38.8v-5.5h2.4v3h2.5v2.5H172.2z M164.7,16.8h-1.9v-2.6h1.9
		V16.8z M162.9,18.2h1.7V20h6.4v1h-8.2L162.9,18.2z M174.2,9.9v4.7h-1.7V8.2h5v3.5h-2V9.9H174.2z M171.8,22.4h0.7h1.7v2.2h-5.3v-2.2
		H171.8z M172.2,31.9v-1.4h3.8V28h1.6v3.9H172.2z M177.5,26v0.6h-2.9v2.5h-2.4V26h2.6h0.7H177.5z M175.8,21h-1h-0.7h-1.7V16h1.7v3.5
		h1.7V21z M175.5,18.1v-5h2v5H175.5z M174.2,2.9v3.9h-3v5.9h-0.9v-7h2V2.9h1.8H174.2z M168.1,2.9h2.8v1.4h-2v9.8h2.2v4.6h-5v-0.5h2
		V2.9z M166.7,12.5v4.3h-0.6v-4h-3.3v-0.3H166.7z M161.6,18.2l-0.1,10h-0.5v-6.3h-2.1v-3.7H161.6z M158.8,23.2h0.7v5h-0.7V23.2z
		 M149.5,24.6v6.6H148v-6h-3.5v-4.5h2.3v3.9H149.5z M148.2,19.3h-3.7v-3.7h1.1v2h2.6V19.3z M143.2,21h-1.9v-3.4h1.9V21z M144.6,26.6
		h2.1v4.6h-2.1V26.6z M150.1,19.3h-0.5v-3h-2.6v-0.6h3V19.3z M147.3,11.7v2.6h-2.7v-2.6H147.3z M137.4,20.7h1.5v-6.2h4.3v1.8h-3.3
		v6.9h-2.5V20.7z M139.3,26.6v-2.1h1.9v-2.1h1.9v8.8h-2.1v-4.6H139.3z M139.7,31.6v1h3.5v2.9h-5v-3.9H139.7z M138.1,36.9h5v1.9h-4
		v5.7h-1V36.9z M142.1,59.2v-2.3h-3.6v-1h4.8v3.4H142.1z M144.6,55.9h0.6v3.4h-0.6V55.9z M146.9,51.1v8.2h-0.4v-4.8h-1.9v-3.1h-4
		v-2.8h2.6v2.5H146.9z M143.2,44.5h-2.6v-4.3h2.6V44.5z M146.9,34.4v4.4h-2.3v-6.2h2.8h0.7h1.5v1.8H146.9z M156.6,38v0.8h-5.7v-3
		v-0.1h0.7V38H156.6z M150.9,34.3v-3h3.2v2h5.1v-1.4h-3.7v-2.3h1.9h0.4h3.7l0,4.7H150.9z M166.7,32.8h-1.3v-3h-2.6l0-0.3h3.9V32.8z
		 M163.9,37v-2.8h-1.1l0-3h1.2v3h2.6V37H163.9z M168.1,30.2v-2h-5.2l0.1-5.8h4.6v2.2h-2.9V26h6.2v14.2h3.3v2h-3.3v3.4h-0.6V30.2
		H168.1z M172.2,45.6v-2h3.9v2H172.2z M175.2,53.5H173v-3.4h2.2V53.5z M171.6,48.7v7.4h-3v-2.5h1v-6.6h3.6v1.8H171.6z M163.9,53.6
		h3.3v2.5h-1.8v1.8h-1.5V53.6z M163.9,42.5h1.1v2.2h3.8v0.9h-0.6h-4.4V42.5z M166.8,50.7v-3.7h1.5v5.3h-4.4v-1.5H166.8z M163.9,59.2
		h2.9v-1.8h2.4v2.1h-5.3V59.2z M170.6,59.6v-2.1h2.4v-2.6h2.2v4.7H170.6z M180.2,50.7h-3.6v-2h-1.9v-1.8h5.5V50.7z M177.5,45.6v-2
		h1.6v-1.4h-3.5v-2h4.6v5.4H177.5z M178.4,38.8v-2.5h4.8v5.9h-1.7v-3.4H178.4z M185.3,42.2h-0.7v-7.3H176v-1.6h9.3V42.2z
		 M190.9,31.9h-1.3v-7.7h1.3V31.9z M190.9,22.8h-1.3h-2.7v-4h1.7V21l2.4,0V22.8z M192.3,16.9h1.7v0h1.5v2.7h-3.2V16.9z M196.9,19.6
		v-4.1h-2.2V6.8h0.7v7.4h2.4v5.4H196.9z M201.4,8.2v2.4h-2.3V8.2H201.4z"/>
</g>
<g id="D">
	<path class="st8" d="M124.7,17.6h2.2v-1.4h-2.2v-2.4h1.2v-1.4h-2.6v6.3h-6.8v-1.1h5.3v-7.2h2.4V9h-3.8v4.3h-3.9v-1h2.9v-7H118v5.6
		h-1.5V3.7h-9V2.3h-1.4v2.9h3.7V9h-2.3V6.5h-4.6V2.2H89.2v1.4h9v2.4H95h-0.7h-6.5V2.3h-1.4v3.6h-1.6v0.7h-0.1v2.6h-1.4v1.4h1.4v1.2
		h-2.3v1.4h2.3v1.4h-3v5.3h-2.3v-1.8h-1.4v3.2h5.1V16h1.7v7h-8.9v5.2h8.9v1.4h-9.7h-0.7h-0.5v-1.7h-1.4v3.1h1.9v1.2h-3.7v1.4h5v-2.6
		h3.1v3.8h-4.7v1.4h2.8v1.5h1.4v-1.5h0.5h0.7h4.1v2.1h-8.2V37h-1.4v1.1H72v-3.5h-2.5v1.4h1.2v3.5h1.7v0.8h-3.4v-1.5h-1.4v2.9h8.2
		v1.6h-5.8v1.4h5.8v1.5h-6.8v-2.8h-4.5v1.4h1.3v2.2h-2.5v0.4h0v3.4h7.8V52H59.7v2.2h-2.3v1.4h3.7v-2.2h0.7v3.2h-5.6v0.7h0v3.7h1.4
		v-3h1.2V61h3v-1.4h-1.6v-1.7H63v3.3h11.7v-5.5h4.5v1.7h-2.6v3.8h7v-1.4h-0.7v-1.5H85v-7.1h0.7v9.6h1.4v-6.3h0.6V58h2.2v1.5h9.6
		v-1.4h-3.8v-1.4h9.8v-1.4h-7.3v-0.7h7.2v-4.4h1.7v2.4h4.6v-1.4h-3.2v-1h1.8v-2.7h2.6v2.7h1.4v-4h-3.9v-0.4h4.8v2.7h1.4v-2.7h1.9
		v-1.4h-9.5v4.5h-7v-1.2h5.9v-4.6h13.1v-7.7h4v-6.4h1.3v-1.4h-2.7v3.8h-0.4V28h-2.2v-5.9h-4.4v-2h5.3v3.4h1.8V26h3.7v-1.4H125v-1.1
		h2.3v-1.4h-4.1v-2h0.8h0.7h2.6v-1.4h-2.6V17.6z M107.5,16.9v-2.7h2.8v1.9h4.8v1.3H112l0-0.6H107.5z M120.5,14.7v1.5h-3.9v-1.5
		H120.5z M115.1,14.7h-3.5v-0.6h1.9V5.1h1.6V14.7z M111.3,10.4V5.1h0.9v7.7h-4.7v-2.4H111.3z M99.6,7.3V3.5h2v4.3h4.6V9H95V7.3H99.6
		z M99.2,13.2h1V16h-3.4v-0.6h2.4V13.2z M97.8,13.9h-2.4v2h-1.3v3.5H93v-6h-3.2l0-1.2v-1.9h3.7v2.8h4.3V13.9z M89.8,14.9h1.8v4.6
		h-1.8L89.8,14.9z M93.6,9h-2.2V7.3h2.2V9z M86,7.3H90V9h-1.6v2.8H86V7.3z M86,24.3v-4.8h0.4v7.2h-1.7v-1.9h-4.3v-0.5H86z
		 M77.1,24.3H79v1.9h4.3v0.5h-6.3V24.3z M77.1,41.7h1.6v4.4H78h-0.7h-0.3V41.7z M64.5,48.3H67v-3.5h0.5v2.8h5.8v1.7h-8.8V48.3z
		 M72.3,50.6h2.4v-3h2.7v2.3h-1.7V52h-3.4V50.6z M63.1,56.5v-3.2h2.5v5.9h4.9v0.6h-6.1v-3.3H63.1z M71.9,59.8v-2H67v-4.5h2.1v3.5
		h4.1v3H71.9z M73.3,54.4v1.1h-2.7v-2.1h6.5v-2.1h0.3H78h3.5v0.8h-3.6v2.3H73.3z M79.3,54.4v-0.9h2.2v0.9H79.3z M83.6,57h-2.1v2.9
		H78v-1h2.6v-3.1h2.4v-4.5h0.7V57z M89.1,56.6v-3.5h-2v-1.9h2.1l0-1.5h0.8v6.8H89.1z M104,50.2v3h-7.2v2.1h-2.6v-3h7.7v-2.1H104z
		 M100.6,50.9h-7.7v5.7h1.5v1.4h-3v-8.3h7.3v-2.3h1.9V50.9z M112.9,41.5h-2.3v-2h2.3V41.5z M118.1,41.5V39h1.5v2.5H118.1z
		 M116.5,36.8h2.2v-4.1h0.8v4.9h-3V36.8z M121.8,29.4v3.2h1.8v1.2h-2.6v-4.5H121.8z M119.6,31.3h-2.2v4.1h-0.8v-4.9h-6.4v1.4h5v1.4
		h-5.8v1.4h5.8V39h1.6v2.5h-2.5v-6.2h-6.2v1.4h4.8v1.4h-3.7v3.4h-1.4v-3.2h-1.4v1.6H105v1.4h1.4v2.1h-5.5v1.4h5.5v1.5H94.3v1.4h3
		v0.9h-7.3v0h-2.2l0,1.5h-0.7h-4.9h-3.5v-2.3H80v-1.9h1v-1.4h-1v-2.6h3.2v-1.4h-9.6v-0.8h11.2v-4.8H80v-1.2h7v-1.4h-7v-1.2H86v-2.8
		h4.2v-1.4h-2.4v-8.6H86v-4.9h2.5l0,11.2h3.8V23h-2.5l0-2.1h5.6v-3.5h6.2v-5.5H95v-1.4h8.1v7.3h1.4v-7.3h1.7v7.8h4.5l-0.1,5.3h2.3
		v2.1h-1.5v1.4h2.9v-3.5h3.1v1.3h-2.6v3.3H111v1.4h7.7v-6h0.8V31.3z M117.4,26.2v1.9h-1.2v-1.9H117.4z M112,22.1l0-3.3h3.1v3.3H112z
		"/>
</g>
<g id="W">
	<path class="st7" d="M54,43.6v-6.7h3v-1.4h-3v-2.2h5.6v-4.8h2.2v-1.4h-2.2v-2.9l4.3,0l0-1.4l-4.3,0V21l6.9,0v-4.9h2.2v-1.4h-2.2V12
		h5.1v-1.4h-1.5V8.2h4.1V4.5h1.6V3.1h-3v3.7h-6.4V5.4h1h0.7h3.9V2.3h4.7V1h-6.1V4h-1.8V1h-8.2v14.6h-1V6.1h-1.4v4.2h-2.3v1.4h2.3
		v1.5h-3.9v1.4h3.9v0.9h-5.4v3.8h-1.6v1.4h1.6v2.1l-0.4,0h-3.7v3.1h-1.4v1.4h1.4v0.9h-2.5v-3.6h-3.4v-2.2h2.7V21h-1v-1.5h1.7v-12H46
		V6.8h-3.2V2.9H46V1.5h-3.2h-1.5H34v3.2H32V6H34v2.2H30v1.4H34v1.5h-5.3v3.1h-1.9v1.4h1.9v1.1h-4v3.5h-1.6v1.4h1.6v6.5h-1.9V23h-1.4
		v3.6h-1.8V28h1.8v1.9h-3.2v-6.7h-2.6v-2.5h3.2v-6.4H16v-2.6h2.8V0.6H2V2H7v1.7h-5v1.4h8.6v3.9h6.8v1.4h-6.2h-0.7H8.8V6.2H2.1v1.4
		h5.4v4.1h3v1.4H6.2V9.2H1.9v11.3h1.4v-10h1.6v3.2v0.7v4.8H3.3v3.9H2.1v1.4h3.2v2.1H2.1V28h5v2.2H5.4H4.7H2v5.4h1.4v-4h0.7v4.6v0.7
		v7.6H3.5v-3.9H2.1v5.3h8.4v1.4h-4v1.5H3.6v-2.5H2.2v3.9h4.3v1.2H2.4v1.4h4.7h0.7h2.6v1.7H2.2v2.7h1.4v-1.3h0.7v2.4H8v1H2.4v1.4
		h13.2v-4.5h2.6v-2.5h1.4v-1.4h-2.8v2.5h-1.2v-3.6H21v-1.4h-9.1v-9.5h3.7v-4.4h1.2v4.4h3.7v1.2H13v7h5.3v-3h2.1v3h2.4v-1.4h-1v-1.6
		h2.9V44h-7.7v3h-2.5v-4.2h7.6v-2.6h2v2.3h2.3v-1.4h-0.9v-1v-0.7V38h3.4v-1.4h-4.1h-0.7h-3.6v-0.9h9.1h0.4v2.8H34v3.7h1.4V31.6h0.8
		v11.7h-2.5v-2.2h-2.5v-1.7h-1.4v7.5h2.9v2.3h-2.2v0.1h-0.7V61h14.1v-8.9h4.9v-0.7h0v-4.4h2.4v-1.4h-2.4v-2H54z M8.4,3.7V2h5.8v3.6
		H12V3.7H8.4z M12,7.6V7h3.6V2h1.8v5.5H12z M45.7,38.8v-2.5h4.8v5.9h-1.7v-3.4H45.7z M39.5,38.8v-5.5h2.4v3h2.5v2.5H39.5z M32,16.8
		h-1.9v-2.6H32V16.8z M30.2,18.2H32V20h6.4v1h-8.2L30.2,18.2z M41.4,9.9v4.7h-1.7V8.2h5v3.5h-2V9.9H41.4z M39.1,22.4h0.7h1.7v2.2
		h-5.3v-2.2H39.1z M44.8,31.9h-5.3v-1.4h3.8V28h1.6V31.9z M52.6,42.2h-0.7v-7.3h-8.6v-1.6h9.3V42.2z M53.1,24.2h0.5h2v4.7h-1.3v-2.2
		h-1.2V24.2z M52.5,28.1h0.4v2.2h2.7v1.6h-3.1V28.1z M58.2,31.9h-1.3v-7.7l1.3,0V31.9z M64.2,19.6v-4.1H62V6.8h0.7v7.4h2.4v5.4H64.2
		z M68.7,8.2v2.4h-2.3V8.2H68.7z M67.5,2.3V4h-2.4v8.8h-1V5.4H62v-3H67.5z M61.3,16.9L61.3,16.9l1.5,0v2.7h-3.2v-2.7H61.3z
		 M58.2,16.9v2.7l-1,0v-2.2h-3v-0.5H58.2z M54.2,18.8h1.7V21l2.4,0v1.8l-4,0V18.8z M50.1,29.6v-5.4h1.6v2.5h-0.6v5.1h-4.9v-2.3H50.1
		z M44.8,26v0.6h-2.9v2.5h-2.4V26h2.6h0.7H44.8z M43.1,21h-1h-0.7h-1.7V16h1.7v3.5h1.7V21z M42.8,18.1v-5h2v5H42.8z M41.4,2.9v3.9
		h-3v5.9h-0.9v-7h2V2.9h1.8H41.4z M35.4,2.9h2.8v1.4h-2v9.8h2.2v4.6h-5v-0.5h2V2.9z M34,12.5v4.3h-0.6v-4h-3.3v-0.3H34z M28.9,18.2
		l-0.1,10h-0.5v-6.3h-2.1v-3.7H28.9z M26.1,23.2h0.7v5h-0.7V23.2z M16.8,24.6v6.6h-1.5v-6h-3.5v-4.5h2.3v3.9H16.8z M15.5,19.3h-3.7
		v-3.7H13v2h2.6V19.3z M10.5,21H8.5v-3.4h1.9V21z M11.9,26.6h2.1v4.6h-2.1V26.6z M17.4,19.3h-0.5v-3h-2.6v-0.6h3V19.3z M14.6,11.7
		v2.6h-2.7v-2.6H14.6z M4.7,20.7h1.5v-6.2h4.3v1.8H7.2v6.9H4.7V20.7z M6.6,26.6v-2.1h1.9v-2.1h1.9v8.8H8.4v-4.6H6.6z M7,31.6v1h3.5
		v2.9h-5v-3.9H7z M5.4,36.9h5v1.9h-4v5.7h-1V36.9z M9.4,59.2v-2.3H5.7v-1h4.8v3.4H9.4z M11.9,55.9h0.6v3.4h-0.6V55.9z M14.2,51.1
		v8.2h-0.4v-4.8h-1.9v-3.1h-4v-2.8h2.6v2.5H14.2z M10.5,44.5H7.9v-4.3h2.6V44.5z M14.2,34.4v4.4h-2.3v-6.2h2.8h0.7h1.5v1.8H14.2z
		 M23.9,38v0.8h-5.7v-3v-0.1h0.7V38H23.9z M18.2,34.3v-3h3.2v2h5.1v-1.4h-3.7v-2.3h1.9h0.4h3.7l0,4.7H18.2z M34,32.8h-1.3v-3h-2.6
		l0-0.3H34V32.8z M31.2,37v-2.8h-1.1l0-3h1.2v3H34V37H31.2z M35.4,30.2v-2h-5.2l0.1-5.8h4.6v2.2h-2.9V26h6.2v14.2h3.3v2h-3.3v3.4
		h-0.6V30.2H35.4z M39.5,45.6v-2h3.9v2H39.5z M42.5,53.5h-2.2v-3.4h2.2V53.5z M38.9,48.7v7.4h-3v-2.5h1v-6.6h3.6v1.8H38.9z
		 M31.2,53.6h3.3v2.5h-1.8v1.8h-1.5V53.6z M31.2,42.5h1.1v2.2h3.8v0.9h-0.6h-4.4V42.5z M34.1,50.7v-3.7h1.5v5.3h-4.4v-1.5H34.1z
		 M31.2,59.2h2.9v-1.8h2.4v2.1h-5.3V59.2z M37.9,59.6v-2.1h2.4v-2.6h2.2v4.7H37.9z M47.5,50.7h-3.6v-2h-2v-1.8h5.5V50.7z M44.8,45.6
		v-2h1.6v-1.4h-3.5v-2h4.6v5.4H44.8z"/>
</g>
</svg>
